<svg height="512" viewBox="0 0 510 510" width="512" xmlns="http://www.w3.org/2000/svg" xmlns:xlink="http://www.w3.org/1999/xlink"><linearGradient id="a"><stop offset="0" stop-color="#c5715a"/><stop offset="1" stop-color="#883f2e"/></linearGradient><linearGradient id="f" gradientUnits="userSpaceOnUse" x1="130.149" x2="170.466" xlink:href="#a" y1="323.38" y2="323.38"/><linearGradient id="g" gradientUnits="userSpaceOnUse" x1="326.216" x2="351.898" xlink:href="#a" y1="311.005" y2="336.686"/><linearGradient id="h" gradientUnits="userSpaceOnUse" x1="203.146" x2="315.319" xlink:href="#a" y1="348.529" y2="348.529"/><linearGradient id="b"><stop offset="0" stop-color="#883f2e" stop-opacity="0"/><stop offset="1" stop-color="#6d3326"/></linearGradient><linearGradient id="i" gradientUnits="userSpaceOnUse" x1="330.547" x2="256.813" xlink:href="#b" y1="371.202" y2="268.347"/><linearGradient id="j" gradientUnits="userSpaceOnUse" x1="255" x2="255" xlink:href="#b" y1="433.726" y2="466.159"/><linearGradient id="k" gradientUnits="userSpaceOnUse" x1="333.21" x2="275.21" xlink:href="#b" y1="437.494" y2="409.494"/><linearGradient id="c"><stop offset="0" stop-color="#a2e62e"/><stop offset=".123" stop-color="#97de30"/><stop offset=".34" stop-color="#79cb36"/><stop offset=".623" stop-color="#4aab3f"/><stop offset=".961" stop-color="#09804c"/><stop offset="1" stop-color="#017b4e"/></linearGradient><linearGradient id="l" gradientUnits="userSpaceOnUse" x1="137.057" x2="345.85" xlink:href="#c" y1="70.763" y2="279.556"/><linearGradient id="d"><stop offset="0" stop-color="#017b4e" stop-opacity="0"/><stop offset=".483" stop-color="#01754a" stop-opacity=".483"/><stop offset="1" stop-color="#026841"/></linearGradient><linearGradient id="m" gradientUnits="userSpaceOnUse" x1="103.338" x2="74.527" xlink:href="#d" y1="178.091" y2="300.773"/><linearGradient id="n" gradientUnits="userSpaceOnUse" x1="298.617" x2="348.805" xlink:href="#d" y1="198.703" y2="289.785"/><linearGradient id="o" gradientUnits="userSpaceOnUse" x1="263.677" x2="189.324" xlink:href="#d" y1="85.529" y2="-31.577"/><linearGradient id="p" gradientUnits="userSpaceOnUse" x1="361.253" x2="451.406" xlink:href="#d" y1="151.346" y2="129.97"/><linearGradient id="q" gradientUnits="userSpaceOnUse" x1="171.095" x2="124.452" xlink:href="#d" y1="166.305" y2="67.097"/><linearGradient id="r" gradientUnits="userSpaceOnUse" x1="255.006" x2="255.006" xlink:href="#d" y1="216.863" y2="290.118"/><linearGradient id="s" gradientUnits="userSpaceOnUse" x1="255" x2="255" xlink:href="#c" y1="451" y2="533.555"/><linearGradient id="t" gradientUnits="userSpaceOnUse" x1="236.781" x2="259.29" xlink:href="#c" y1="395.001" y2="417.51"/><linearGradient id="u" gradientUnits="userSpaceOnUse" x1="239.446" x2="295.068" xlink:href="#c" y1="328.961" y2="384.584"/><linearGradient id="e"><stop offset="0" stop-color="#017b4e" stop-opacity="0"/><stop offset="1" stop-color="#026841"/></linearGradient><linearGradient id="v" gradientUnits="userSpaceOnUse" x1="301.699" x2="275.817" xlink:href="#e" y1="382.115" y2="373.488"/><linearGradient id="w" gradientTransform="rotate(45 300.173 -1896.405)" gradientUnits="userSpaceOnUse" x1="1898.263" x2="1898.263" xlink:href="#e" y1="-283.735" y2="-241.334"/><linearGradient id="x" gradientTransform="rotate(45 300.173 -1896.405)" gradientUnits="userSpaceOnUse" x1="1898.263" x2="1898.263" xlink:href="#d" y1="-323.946" y2="-268.188"/><linearGradient id="y" gradientUnits="userSpaceOnUse" x1="228.353" x2="273.058" xlink:href="#c" y1="424.581" y2="422.62"/><linearGradient id="z" gradientUnits="userSpaceOnUse" x1="252.738" x2="252.738" y1="451.648" y2="472.302"><stop offset="0" stop-color="#017b4e" stop-opacity="0"/><stop offset=".469" stop-color="#01764a" stop-opacity=".469"/><stop offset="1" stop-color="#026841"/></linearGradient><linearGradient id="A" gradientUnits="userSpaceOnUse" x1="193.022" x2="259.987" xlink:href="#c" y1="357.216" y2="424.182"/><linearGradient id="B" gradientTransform="rotate(-45 255.373 -1936.152)" gradientUnits="userSpaceOnUse" x1="-1389.627" x2="-1435.058" xlink:href="#e" y1="-329.298" y2="-329.298"/><linearGradient id="C" gradientTransform="rotate(-45 255.373 -1936.152)" gradientUnits="userSpaceOnUse" x1="-1410.411" x2="-1410.411" xlink:href="#e" y1="-317.492" y2="-268.852"/><linearGradient id="D" gradientTransform="rotate(-45 255.373 -1936.152)" gradientUnits="userSpaceOnUse" x1="-1410.411" x2="-1410.411" xlink:href="#d" y1="-355.139" y2="-291.175"/><path d="M166.98 307.615l22.933-22.933-9.858-9.858-21.115 21.115c-8.122 8.122-22.102 4.718-25.343-6.302l-.067-.23-12.796-44.125-13.389 3.883 12.796 44.125a79.436 79.436 0 0020.069 33.955l74.233 74.233 9.858-9.858-57.321-57.321c-7.368-7.368-7.368-19.316 0-26.684z" fill="url(#f)"/><path d="M373.814 313.25l-11.58-3.358c-6.22-1.804-8.227-9.616-3.648-14.195l7.917-7.917-9.859-9.858-63.51 63.51 9.859 9.858 24.531-24.531a23.034 23.034 0 0122.703-5.835l19.706 5.715a6.97 6.97 0 103.881-13.389z" fill="url(#g)"/><path d="M308.118 348.492c-.236-30.516-.717-122.279-.852-125.434H202.733c-.134 3.155-.615 94.917-.852 125.434-.16 20.687-3.087 41.169-8.982 59.749-5.77 18.185-13.573 32.779-22.976 43.808l-8.603 10.09c-3.982 4.67-.663 11.861 5.474 11.861h176.409c6.137 0 9.456-7.191 5.474-11.861l-8.603-10.09c-9.403-11.029-17.206-25.622-22.976-43.808-5.893-18.579-8.82-39.061-8.98-59.749z" fill="url(#h)"/><path d="M308.118 348.492c-.236-30.516-.717-122.279-.852-125.434H202.733c-.093 2.193-.354 47.21-.584 84.702l125.087 125.087c-3.852-7.305-7.249-15.506-10.136-24.607-5.895-18.578-8.822-39.06-8.982-59.748z" fill="url(#i)"/><path d="M169.924 452.049l-8.603 10.09c-3.982 4.67-.663 11.861 5.474 11.861h176.409c6.137 0 9.456-7.191 5.474-11.861l-8.603-10.09c-7.262-8.518-13.565-19.172-18.719-31.955H188.643c-5.154 12.783-11.457 23.437-18.719 31.955z" fill="url(#j)"/><path d="M256.549 441.471A98.663 98.663 0 00262.035 474h81.17c6.137 0 9.456-7.191 5.474-11.861l-8.603-10.09c-9.403-11.029-17.206-25.622-22.976-43.808-5.316-16.754-8.21-35.057-8.846-53.661-30.799 16.738-51.705 49.373-51.705 86.891z" fill="url(#k)"/><path d="M456.288 161.8a84.83 84.83 0 00.813-11.697c0-46.504-37.699-84.203-84.203-84.203a84.079 84.079 0 00-27.565 4.621C338.796 30.525 304.087 0 262.242 0c-27.727 0-52.321 13.404-67.664 34.082a61.68 61.68 0 00-30.238-7.88c-34.232 0-61.982 27.75-61.982 61.982 0 7.038 1.19 13.794 3.351 20.099a84.96 84.96 0 00-3.506-.078C55.699 108.206 18 145.905 18 192.409s37.699 84.203 84.203 84.203c11.667 0 22.779-2.374 32.881-6.663 9.265 22.564 31.446 38.459 57.349 38.459 23.336 0 43.651-12.902 54.225-31.957 15.425 19.415 39.238 31.867 65.962 31.867 32.516 0 60.724-18.434 74.753-45.419 11.112 10.544 26.117 17.026 42.645 17.026 34.232 0 61.982-27.751 61.982-61.982 0-24.839-14.616-46.255-35.712-56.143z" fill="url(#l)"/><path d="M130.451 246.425c0-32.079 24.37-58.465 55.606-61.657-3.862-42.922-39.926-76.561-83.854-76.561C55.699 108.206 18 145.905 18 192.409s37.699 84.203 84.203 84.203c11.667 0 22.779-2.374 32.881-6.663a61.788 61.788 0 01-4.633-23.524z" fill="url(#m)"/><circle cx="312.62" cy="224.115" fill="url(#n)" r="84.203"/><path d="M262.242 0c-27.727 0-52.321 13.404-67.664 34.082 18.937 10.607 31.744 30.854 31.744 54.103 0 21.443-10.891 40.341-27.441 51.47 15.434 17.621 38.096 28.75 63.361 28.75 46.504 0 84.203-37.699 84.203-84.203C346.445 37.699 308.746 0 262.242 0z" fill="url(#o)"/><path d="M368.035 217.942c0-34.232 27.751-61.982 61.983-61.982a61.735 61.735 0 0126.27 5.84 84.83 84.83 0 00.813-11.697c0-46.504-37.699-84.203-84.203-84.203s-84.203 37.699-84.203 84.203c0 45.608 36.261 82.742 81.526 84.156a62.019 62.019 0 01-2.186-16.317z" fill="url(#p)"/><circle cx="164.321" cy="151.898" fill="url(#q)" r="49.374"/><path d="M102.203 276.612c11.667 0 22.779-2.374 32.881-6.663 9.265 22.564 31.446 38.459 57.349 38.459 23.336 0 43.651-12.902 54.225-31.957 15.425 19.415 39.238 31.867 65.962 31.867 32.516 0 60.724-18.434 74.753-45.419 11.112 10.544 26.117 17.026 42.645 17.026 34.232 0 61.982-27.751 61.982-61.982a61.726 61.726 0 00-5.096-24.625H18.012c.488 46.084 37.991 83.294 84.191 83.294z" fill="url(#r)"/><path d="M509.996 484c-.012-1.387-.844-2.893-2.357-4.394-24.046-23.857-128.02-41.804-252.639-41.804S26.407 455.749 2.361 479.606C.848 481.107.016 482.613.004 484H0v6.631C0 501.328 8.672 510 19.369 510h471.262c10.697 0 19.369-8.672 19.369-19.369V484z" fill="url(#s)"/><path d="M246.59 461.941h15.289v-27.494c0-13.882 5.406-26.933 15.222-36.748l9.754-9.754-10.811-10.811-9.754 9.754c-12.704 12.703-19.7 29.593-19.7 47.559z" fill="url(#t)"/><path d="M318.923 354.354a10.445 10.445 0 00-9.405-9.405c-13.65-1.326-28.314 3.644-39.377 14.707-11.064 11.064-16.033 25.727-14.707 39.377a10.445 10.445 0 009.405 9.405c13.65 1.326 28.314-3.644 39.377-14.708 11.064-11.062 16.033-25.726 14.707-39.376z" fill="url(#u)"/><path d="M258.446 405.427a10.442 10.442 0 006.393 3.012c13.65 1.326 28.313-3.644 39.377-14.708s16.033-25.727 14.708-39.377a10.442 10.442 0 00-3.012-6.393z" fill="url(#v)"/><path d="M301.415 396.332a52.496 52.496 0 002.801-2.601c11.064-11.064 16.033-25.727 14.708-39.377a10.445 10.445 0 00-9.405-9.405c-13.65-1.326-28.314 3.644-39.377 14.707-.91.91-1.774 1.845-2.601 2.801v33.874z" fill="url(#w)"/><path d="M287.845 376.028h27.985c2.747-7.059 3.789-14.505 3.093-21.673a10.445 10.445 0 00-9.405-9.405c-7.168-.696-14.615.346-21.673 3.093z" fill="url(#x)"/><path d="M228.468 474h48.54c4.078 0 5.685-5.285 2.297-7.556l-9.677-6.485a15.984 15.984 0 01-7.086-13.279c0-23.04-8.972-44.701-25.264-60.991l-12.509-12.509-13.865 13.865 12.509 12.509c12.589 12.587 19.521 29.324 19.521 47.127a15.987 15.987 0 01-7.086 13.279l-9.677 6.485c-3.388 2.27-1.781 7.555 2.297 7.555z" fill="url(#y)"/><path d="M242.935 446.681a15.987 15.987 0 01-7.086 13.279l-9.677 6.485c-3.388 2.27-1.781 7.555 2.297 7.555h48.54c4.078 0 5.685-5.285 2.297-7.555l-9.677-6.485a15.984 15.984 0 01-7.086-13.279c0-2.281-.092-4.548-.266-6.798H242.59c.226 2.244.345 4.512.345 6.798z" fill="url(#z)"/><path d="M187.896 341.302a11.982 11.982 0 00-10.789 10.789c-1.521 15.659 4.18 32.48 16.872 45.172s29.513 18.393 45.172 16.872a11.982 11.982 0 0010.789-10.789c1.521-15.659-4.18-32.48-16.872-45.172s-29.513-18.393-45.172-16.872z" fill="url(#A)"/><path d="M246.485 410.679a11.98 11.98 0 003.455-7.334c1.521-15.659-4.18-32.48-16.872-45.172s-29.513-18.393-45.172-16.872a11.98 11.98 0 00-7.334 3.455z" fill="url(#B)"/><path d="M236.051 361.387a61.07 61.07 0 00-2.983-3.213c-12.692-12.692-29.513-18.393-45.172-16.872a11.982 11.982 0 00-10.789 10.789c-1.521 15.659 4.18 32.48 16.872 45.172a60.646 60.646 0 003.213 2.983h38.859z" fill="url(#C)"/><path d="M212.759 376.953V344.85c-8.098-3.151-16.64-4.347-24.863-3.548a11.982 11.982 0 00-10.789 10.789c-.799 8.223.397 16.765 3.548 24.863h32.104z" fill="url(#D)"/><path d="M343.628 491.634c-.004-.98-.293-2.044-.819-3.104C334.451 471.677 298.314 459 255 459s-79.451 12.677-87.809 29.53c-.526 1.06-.815 2.124-.819 3.104h-.001v4.684c0 7.556 3.014 13.682 6.732 13.682h163.795c3.718 0 6.732-6.126 6.732-13.682v-4.684z" fill="url(#s)"/></svg>